<svg xmlns="http://www.w3.org/2000/svg" viewBox="0 0 480 480"><path d="M240 416c66.274 0 120-53.726 120-120-.075-66.243-53.757-119.925-120-120-66.274 0-120 53.726-120 120s53.726 120 120 120zm0-224c57.438 0 104 46.562 104 104-.066 57.41-46.59 103.934-104 104-57.438 0-104-46.562-104-104s46.562-104 104-104z"/><path d="M240 384c48.601 0 88-39.399 88-88-.057-48.577-39.423-87.943-88-88-48.601 0-88 39.399-88 88s39.399 88 88 88zm-.052-160c36.679-.013 67.505 27.548 71.58 64H288v16h23.528c-4.111 36.412-34.885 63.947-71.528 64-39.764.014-72.012-32.209-72.026-71.974-.015-39.764 32.209-72.012 71.974-72.026z"/><path d="M440 0H40a8 8 0 0 0-8 8v464a8 8 0 0 0 8 8h400a8 8 0 0 0 8-8V8a8 8 0 0 0-8-8zm-8 464H48V112h384v352zm0-368H48V16h384v80z"/><path d="M88 88c17.673 0 32-14.327 32-32s-14.327-32-32-32-32 14.327-32 32 14.327 32 32 32zm0-48c8.837 0 16 7.163 16 16s-7.163 16-16 16-16-7.163-16-16 7.163-16 16-16zm72 48c17.673 0 32-14.327 32-32s-14.327-32-32-32-32 14.327-32 32 14.327 32 32 32zm0-48c8.837 0 16 7.163 16 16s-7.163 16-16 16-16-7.163-16-16 7.163-16 16-16zm72 48c17.673 0 32-14.327 32-32s-14.327-32-32-32c-17.673 0-32 14.327-32 32s14.327 32 32 32zm0-48c8.837 0 16 7.163 16 16s-7.163 16-16 16-16-7.163-16-16 7.163-16 16-16zm160 48c17.673 0 32-14.327 32-32s-14.327-32-32-32c-17.673 0-32 14.327-32 32s14.327 32 32 32zm0-48c8.837 0 16 7.163 16 16s-7.163 16-16 16-16-7.163-16-16 7.163-16 16-16zM64 456h48a8 8 0 0 0 8-8v-32a8 8 0 0 0-8-8H64a8 8 0 0 0-8 8v32a8 8 0 0 0 8 8zm8-32h32v16H72v-16z"/></svg>