<svg xmlns="http://www.w3.org/2000/svg" viewBox="0 0 503.607 503.607"><path d="M495.213 453.246h-25.18V8.393c0-5.036-3.357-8.393-8.393-8.393H41.967c-5.036 0-8.393 3.357-8.393 8.393v444.852H8.393c-5.036 0-8.393 3.357-8.393 8.393v33.574c0 5.036 3.357 8.393 8.393 8.393h486.82c5.036 0 8.393-3.357 8.393-8.393v-33.574c.001-5.035-3.357-8.392-8.393-8.392zM50.361 16.787h402.885v436.459H327.344v-92.328c0-5.036-3.357-8.393-8.393-8.393H184.655c-5.036 0-8.393 3.357-8.393 8.393v92.328H50.361V16.787zm142.688 436.459v-83.934h50.361v83.934h-50.361zm67.148-83.935h50.361v83.934h-50.361v-83.934zM486.82 486.82H16.787v-16.787h470.034v16.787z"/><path d="M159.475 41.967H92.328c-5.036 0-8.393 3.357-8.393 8.393v50.361c0 5.036 3.357 8.393 8.393 8.393h67.148c5.036 0 8.393-3.357 8.393-8.393v-50.36c0-5.036-3.358-8.394-8.394-8.394zm-8.393 50.361h-50.361V58.754h50.361v33.574zm8.393 41.967H92.328c-5.036 0-8.393 3.357-8.393 8.393v50.361c0 5.036 3.357 8.393 8.393 8.393h67.148c5.036 0 8.393-3.357 8.393-8.393v-50.361c0-5.036-3.358-8.393-8.394-8.393zm-8.393 50.361h-50.361v-33.574h50.361v33.574zm67.147 16.787h67.148c5.036 0 8.393-3.357 8.393-8.393v-50.361c0-5.036-3.357-8.393-8.393-8.393h-67.148c-5.036 0-8.393 3.357-8.393 8.393v50.361c0 5.035 3.357 8.393 8.393 8.393zm8.394-50.361h50.361v33.574h-50.361v-33.574zm117.508 50.361h67.148c5.036 0 8.393-3.357 8.393-8.393v-50.361c0-5.036-3.357-8.393-8.393-8.393h-67.148c-5.036 0-8.393 3.357-8.393 8.393v50.361c0 5.035 3.357 8.393 8.393 8.393zm8.394-50.361h50.361v33.574h-50.361v-33.574zM218.229 293.771h67.148c5.036 0 8.393-3.357 8.393-8.393v-50.361c0-5.036-3.357-8.393-8.393-8.393h-67.148c-5.036 0-8.393 3.357-8.393 8.393v50.361c0 5.035 3.357 8.393 8.393 8.393zm8.394-50.361h50.361v33.574h-50.361V243.41zm117.508 50.361h67.148c5.036 0 8.393-3.357 8.393-8.393v-50.361c0-5.036-3.357-8.393-8.393-8.393h-67.148c-5.036 0-8.393 3.357-8.393 8.393v50.361c0 5.035 3.357 8.393 8.393 8.393zm8.394-50.361h50.361v33.574h-50.361V243.41zm-193.05-16.787H92.328c-5.036 0-8.393 3.357-8.393 8.393v50.361c0 5.036 3.357 8.393 8.393 8.393h67.148c5.036 0 8.393-3.357 8.393-8.393v-50.361c0-5.036-3.358-8.393-8.394-8.393zm-8.393 50.361h-50.361V243.41h50.361v33.574zm67.147-167.869h67.148c5.036 0 8.393-3.357 8.393-8.393V50.361c0-5.036-3.357-8.393-8.393-8.393h-67.148c-5.036 0-8.393 3.357-8.393 8.393v50.361c0 5.035 3.357 8.393 8.393 8.393zm8.394-50.361h50.361v33.574h-50.361V58.754zm117.508 50.361h67.148c5.036 0 8.393-3.357 8.393-8.393V50.361c0-5.036-3.357-8.393-8.393-8.393h-67.148c-5.036 0-8.393 3.357-8.393 8.393v50.361c0 5.035 3.357 8.393 8.393 8.393zm8.394-50.361h50.361v33.574h-50.361V58.754zM201.443 335.738h100.721c5.036 0 8.393-3.357 8.393-8.393 0-5.036-3.357-8.393-8.393-8.393H201.443c-5.036 0-8.393 3.357-8.393 8.393-.001 5.035 3.357 8.393 8.393 8.393z"/></svg>