<svg xmlns="http://www.w3.org/2000/svg" viewBox="0 0 408 408"><path d="M397.9 83c5.5 0 10-4.5 10.1-10V10.1C408 4.5 403.5 0 397.9 0H335c-5.5 0-10 4.5-10 10.1V32H83V10.1C83 4.6 78.5.1 73 0H10.1C4.6 0 .1 4.5 0 10.1V73c0 5.5 4.5 10 10.1 10H32v242H10.1c-5.5 0-10 4.5-10.1 10v62.9c0 5.5 4.5 10 10.1 10.1H73c5.5 0 10-4.5 10-10.1V376h242v21.9c0 5.5 4.5 10 10 10.1h62.9c5.5 0 10-4.5 10.1-10.1V335c0-5.5-4.5-10-10.1-10H376V83h21.9zM20 63V20h43v43H20zm43 325H20v-43h43v43zm262-53v21H83v-21c0-5.5-4.5-10-10-10H52V83h21c5.5 0 10-4.5 10-10V52h242v21c0 5.5 4.5 10 10 10h21v242h-21c-5.5 0-10 4.5-10 10zm63 10v43h-43v-43h43zM345 63V20h43v43h-43z"/></svg>